# xmcd
#
# Track frame offsets:
#	150
#	14622
#	26867
#	44055
#	56652
#	67967
#
# Disc length: 1058
#
# Revision: 2
# Processed by: cddbd v1.5.1PL0 Copyright (c) Steve Scherf et al.
# Submitted via: CDex 1.30Release
# Normalized: r1:DSETVAR1
#
DISCID=54042006
DTITLE=Various Artist - The Nashville Collection, Volume III
DYEAR=1997
DGENRE=Country
TTITLE0=Marty Stuart - Tempted
TTITLE1=Patsy Cline - Crazy
TTITLE2=The Mavericks - Here Comes The Rain
TTITLE3=Mark Chesnutt - Your Love Is A Miracle
TTITLE4=Tracy Byrd - Holdin' Heaven
TTITLE5=Patty Loveless - Timber, I'm Falling In Love
EXTD=YEAR: 1997 ID3G:   2
EXTT0=
EXTT1=
EXTT2=
EXTT3=
EXTT4=
EXTT5=
PLAYORDER=
